<svg width="17" height="16" viewBox="0 0 17 16" fill="none" xmlns="http://www.w3.org/2000/svg">
<path d="M12.524 5.33334C12.524 4.27248 12.0842 3.25506 11.3013 2.50492C10.5184 1.75477 9.45656 1.33334 8.34937 1.33334C7.24219 1.33334 6.18035 1.75477 5.39745 2.50492C4.61455 3.25506 4.17473 4.27248 4.17473 5.33334C4.17473 10 2.0874 11.3333 2.0874 11.3333H14.6113C14.6113 11.3333 12.524 10 12.524 5.33334Z" stroke="#212529" stroke-width="2" stroke-linecap="round" stroke-linejoin="round"/>
<path d="M9.55289 14C9.43056 14.2021 9.25499 14.3698 9.04374 14.4864C8.83249 14.6029 8.59298 14.6643 8.3492 14.6643C8.10541 14.6643 7.86591 14.6029 7.65466 14.4864C7.44341 14.3698 7.26783 14.2021 7.14551 14" stroke="#212529" stroke-width="2" stroke-linecap="round" stroke-linejoin="round"/>
</svg>
