<svg width="24" height="24" viewBox="0 0 24 24" fill="none" xmlns="http://www.w3.org/2000/svg">
<path d="M20.16 4.99992C19.1 3.93713 17.6948 3.28846 16.1983 3.17109C14.7019 3.05372 13.2128 3.47539 12 4.35992C10.7277 3.41356 9.14399 2.98443 7.56792 3.15896C5.99185 3.33348 4.54044 4.0987 3.50597 5.30051C2.47151 6.50231 1.93082 8.05144 1.9928 9.63594C2.05478 11.2204 2.71482 12.7226 3.84 13.8399L10.05 20.0599C10.57 20.5717 11.2704 20.8585 12 20.8585C12.7296 20.8585 13.43 20.5717 13.95 20.0599L20.16 13.8399C21.3276 12.6652 21.9829 11.0762 21.9829 9.41992C21.9829 7.76365 21.3276 6.17465 20.16 4.99992V4.99992ZM18.75 12.4599L12.54 18.6699C12.4693 18.7413 12.3852 18.7979 12.2925 18.8366C12.1999 18.8752 12.1004 18.8951 12 18.8951C11.8996 18.8951 11.8001 18.8752 11.7075 18.8366C11.6148 18.7979 11.5307 18.7413 11.46 18.6699L5.25 12.4299C4.46576 11.6283 4.02661 10.5514 4.02661 9.42992C4.02661 8.30846 4.46576 7.23158 5.25 6.42992C6.04916 5.64091 7.12697 5.19849 8.25 5.19849C9.37303 5.19849 10.4508 5.64091 11.25 6.42992C11.343 6.52365 11.4536 6.59804 11.5754 6.64881C11.6973 6.69958 11.828 6.72572 11.96 6.72572C12.092 6.72572 12.2227 6.69958 12.3446 6.64881C12.4664 6.59804 12.577 6.52365 12.67 6.42992C13.4692 5.64091 14.547 5.19849 15.67 5.19849C16.793 5.19849 17.8708 5.64091 18.67 6.42992C19.465 7.22107 19.9186 8.29211 19.9335 9.41361C19.9485 10.5351 19.5236 11.6179 18.75 12.4299V12.4599Z" fill="#423D33"/>
</svg>
