<svg width="24" height="24" viewBox="0 0 24 24" fill="none" xmlns="http://www.w3.org/2000/svg">
<path fill-rule="evenodd" clip-rule="evenodd" d="M16.2105 3.18024C17.7069 3.29761 19.1121 3.94628 20.1721 5.00907C21.3397 6.1838 21.995 7.7728 21.995 9.42907C21.995 11.0853 21.3397 12.6743 20.1721 13.8491L13.9621 20.0691C13.4421 20.5808 12.7417 20.8677 12.0121 20.8677C11.2825 20.8677 10.5821 20.5808 10.0621 20.0691L3.85212 13.8491C2.72694 12.7317 2.0669 11.2296 2.00492 9.64508C1.94294 8.06059 2.48363 6.51146 3.5181 5.30965C4.55256 4.10785 6.00397 3.34263 7.58004 3.16811C9.15611 2.99358 10.7398 3.42271 12.0121 4.36907C13.2249 3.48454 14.714 3.06287 16.2105 3.18024Z" fill="#FF0000"/>
</svg>
