<svg width="124" height="136" viewBox="0 0 124 136" fill="none" xmlns="http://www.w3.org/2000/svg">
<path d="M61.8966 135.981C93.3237 135.981 118.8 110.505 118.8 79.0776C118.8 47.6504 93.3237 22.1737 61.8966 22.1737C30.4694 22.1737 4.99268 47.6504 4.99268 79.0776C4.99268 110.505 30.4694 135.981 61.8966 135.981Z" fill="#F9D641"/>
<path d="M123.982 74.3515V0.0185547H0.658203V71.2918V95.2226C0.658203 99.6755 4.26421 103.281 8.71708 103.281C13.17 103.281 16.776 99.6755 16.776 95.2226V69.243C16.776 66.0832 19.3348 63.5244 22.4946 63.5244C25.6544 63.5244 28.2132 66.0832 28.2132 69.243V79.1595C28.2132 83.0296 31.3548 86.1712 35.2249 86.1712C39.095 86.1712 42.2366 83.0296 42.2366 79.1595V56.3761C42.2366 52.9795 44.9866 50.2295 48.3832 50.2295C51.7797 50.2295 54.5298 52.9795 54.5298 56.3761V85.0966C54.5298 89.5495 58.1358 93.1555 62.5886 93.1555C67.0415 93.1555 70.6475 89.5495 70.6475 85.0966V81.7911H70.5838V42.6441C70.5838 38.0729 74.29 34.3667 78.8612 34.3667C83.4325 34.3667 87.1386 38.0729 87.1386 42.6441V72.676C87.1386 75.8358 89.6974 78.4037 92.8664 78.4037C96.0353 78.4037 98.5941 75.8449 98.5941 72.676V58.2975C98.5941 55.6021 100.78 53.4166 103.475 53.4166C106.17 53.4166 108.356 55.6021 108.356 58.2975V80.7075C108.356 85.0238 111.862 88.5296 116.178 88.5296C120.494 88.5296 124 85.0238 124 80.7075V74.3424L123.982 74.3515Z" fill="#3C448C"/>
<path d="M21.7229 38.8768L21.8468 35.4693L18.9659 37.297L18.2224 35.9959L21.2582 34.4161L18.2224 32.8362L18.9659 31.5352L21.8468 33.3628L21.7229 29.9553H23.2098L23.0859 33.3628L25.9668 31.5352L26.7102 32.8362L23.6744 34.4161L26.7102 35.9959L25.9668 37.297L23.0859 35.4693L23.2098 38.8768H21.7229Z" fill="white"/>
<path d="M15.0066 44.527L15.0685 42.8233L13.6281 43.7371L13.2563 43.0866L14.7742 42.2967L13.2563 41.5067L13.6281 40.8562L15.0685 41.77L15.0066 40.0663H15.75L15.6881 41.77L17.1285 40.8562L17.5003 41.5067L15.9824 42.2967L17.5003 43.0866L17.1285 43.7371L15.6881 42.8233L15.75 44.527H15.0066Z" fill="white"/>
<path d="M7.37449 90.3242L7.43645 88.6204L5.996 89.5342L5.62427 88.8837L7.14216 88.0938L5.62427 87.3039L5.996 86.6533L7.43645 87.5672L7.37449 85.8634H8.11795L8.056 87.5672L9.49645 86.6533L9.86818 87.3039L8.35029 88.0938L9.86818 88.8837L9.49645 89.5342L8.056 88.6204L8.11795 90.3242H7.37449Z" fill="white"/>
<path d="M35.7251 67.4258L35.787 65.7221L34.3466 66.6359L33.9749 65.9854L35.4927 65.1955L33.9749 64.4055L34.3466 63.755L35.787 64.6688L35.7251 62.9651H36.4685L36.4066 64.6688L37.847 63.755L38.2188 64.4055L36.7009 65.1955L38.2188 65.9854L37.847 66.6359L36.4066 65.7221L36.4685 67.4258H35.7251Z" fill="white"/>
<path d="M80.5179 17.7126L80.6109 15.157L78.4502 16.5277L77.8926 15.5519L80.1694 14.3671L77.8926 13.1822L78.4502 12.2064L80.6109 13.5771L80.5179 11.0215H81.6331L81.5402 13.5771L83.7009 12.2064L84.2584 13.1822L81.9816 14.3671L84.2584 15.5519L83.7009 16.5277L81.5402 15.157L81.6331 17.7126H80.5179Z" fill="white"/>
<path d="M108.869 29.7076L108.962 27.152L106.801 28.5227L106.244 27.5469L108.521 26.362L106.244 25.1772L106.801 24.2014L108.962 25.5721L108.869 23.0165H109.984L109.891 25.5721L112.052 24.2014L112.61 25.1772L110.333 26.362L112.61 27.5469L112.052 28.5227L109.891 27.152L109.984 29.7076H108.869Z" fill="white"/>
<path d="M99.0558 47.1538L99.1487 44.5981L96.988 45.9689L96.4304 44.9931L98.7073 43.8082L96.4304 42.6233L96.988 41.6475L99.1487 43.0183L99.0558 40.4626H100.171L100.078 43.0183L102.239 41.6475L102.796 42.6233L100.519 43.8082L102.796 44.9931L102.239 45.9689L100.078 44.5981L100.171 47.1538H99.0558Z" fill="white"/>
</svg>
