<svg width="26" height="26" viewBox="0 0 26 26" fill="none" xmlns="http://www.w3.org/2000/svg">
<path d="M20.5833 3.25H5.41667C4.22005 3.25 3.25 4.22005 3.25 5.41667V20.5833C3.25 21.78 4.22005 22.75 5.41667 22.75H20.5833C21.78 22.75 22.75 21.78 22.75 20.5833V5.41667C22.75 4.22005 21.78 3.25 20.5833 3.25Z" stroke="#625D52" stroke-width="2" stroke-linecap="round" stroke-linejoin="round"/>
<path d="M9.20831 10.8335C10.1058 10.8335 10.8333 10.106 10.8333 9.2085C10.8333 8.31103 10.1058 7.5835 9.20831 7.5835C8.31085 7.5835 7.58331 8.31103 7.58331 9.2085C7.58331 10.106 8.31085 10.8335 9.20831 10.8335Z" stroke="#625D52" stroke-width="2" stroke-linecap="round" stroke-linejoin="round"/>
<path d="M22.75 16.2502L17.3334 10.8335L5.41669 22.7502" stroke="#625D52" stroke-width="2" stroke-linecap="round" stroke-linejoin="round"/>
</svg>
