<svg width="74" height="19" viewBox="0 0 74 19" fill="none" xmlns="http://www.w3.org/2000/svg">
<path d="M4.56998 17.1828C3.0355 17.1138 1.9493 16.7517 1.29413 16.0793C0.638959 15.4242 0.328613 14.4242 0.328613 13.0793V8.97591C0.328613 8.85522 0.328614 8.71729 0.363097 8.5966C0.397579 8.45867 0.449307 8.33798 0.535514 8.21729C0.62172 8.0966 0.725166 8.0104 0.863096 7.92419C1.00103 7.85522 1.17344 7.8035 1.38033 7.8035H8.63893V5.02765C8.63893 4.37248 8.501 3.87248 8.20789 3.56214C7.91479 3.25179 7.43203 3.06214 6.75962 2.99317C6.31135 2.95869 5.84584 2.92421 5.36308 2.92421C4.88032 2.92421 4.43205 2.92421 4.00101 2.97593C3.56998 3.01041 3.15619 3.06214 2.77688 3.11386C2.39757 3.16559 2.06999 3.21731 1.79413 3.25179C1.48379 3.30352 1.20792 3.25179 0.983785 3.06214C0.759648 2.88972 0.621715 2.66559 0.569991 2.42421C0.518267 2.16559 0.569994 1.90697 0.707924 1.66559C0.863096 1.42421 1.10447 1.26904 1.43206 1.20008C1.7424 1.14835 2.08723 1.09663 2.50102 1.0449C2.91481 0.99318 3.34585 0.958697 3.79412 0.924215C4.2424 0.889732 4.70791 0.872491 5.17342 0.872491C5.63894 0.872491 6.08721 0.872491 6.51825 0.889732C7.96652 0.99318 9.03548 1.37249 9.70789 2.0449C10.3803 2.71731 10.7251 3.71731 10.7251 5.02765V8.64832C10.7251 8.8897 10.6389 9.14832 10.4837 9.40694C10.3286 9.66556 10.0527 9.78625 9.67341 9.78625H2.39757V13.0276C2.39757 13.3552 2.41482 13.6483 2.46654 13.8897C2.51826 14.1311 2.60447 14.338 2.7424 14.4931C2.88033 14.6483 3.06998 14.769 3.3286 14.8724C3.56998 14.9586 3.89757 15.0276 4.27688 15.0449C4.67343 15.0793 5.1217 15.1138 5.63894 15.1138C6.15618 15.1138 6.65618 15.1138 7.2079 15.0793C7.74238 15.0449 8.2941 14.9931 8.84583 14.9242C9.39755 14.8552 9.93203 14.7518 10.432 14.6311C10.7769 14.5449 11.0527 14.5966 11.2769 14.7862C11.501 14.9759 11.6217 15.1828 11.6734 15.4242C11.7251 15.6655 11.6734 15.9242 11.5527 16.1828C11.4148 16.4414 11.1734 16.5966 10.8458 16.6655C9.77686 16.9069 8.69066 17.0621 7.58721 17.1138C6.48377 17.1655 5.48377 17.1828 4.56998 17.1311V17.1828ZM13.8975 17.5104C13.7768 17.5104 13.6562 17.4931 13.5182 17.4414C13.3975 17.4069 13.2768 17.3379 13.1906 17.2517C13.0872 17.1655 13.0182 17.0448 12.9493 16.9242C12.8803 16.8035 12.8631 16.6311 12.8803 16.4586C12.932 15.4586 12.9837 14.3207 13.0182 13.0449C13.0527 11.769 13.0872 10.4414 13.0872 9.0966C13.0872 7.75178 13.0872 6.44144 13.0527 5.18282C13.0182 3.9242 12.9665 2.82076 12.8803 1.85525C12.8458 1.49318 12.9493 1.23456 13.1734 1.0449C13.3975 0.872491 13.6217 0.769043 13.8803 0.769043C14.1217 0.769043 14.3458 0.85525 14.5872 1.01042C14.8286 1.18283 14.9493 1.42421 14.9665 1.7518C15.0182 2.57938 15.0699 3.51041 15.0872 4.56213C15.1217 5.59661 15.1217 6.68281 15.1217 7.82074H17.0527C17.3975 7.82074 17.6561 7.92419 17.8458 8.14833C18.0182 8.35522 18.1216 8.5966 18.1216 8.85522C18.1216 9.11384 18.0354 9.33798 17.8458 9.56211C17.6734 9.76901 17.3975 9.8897 17.0527 9.8897H15.1044C15.1044 11.0966 15.0699 12.2862 15.0355 13.4242C15.001 14.5621 14.9837 15.5793 14.9492 16.4931C14.9492 16.838 14.8286 17.0966 14.6044 17.2517C14.3803 17.4069 14.1217 17.4931 13.8803 17.4931L13.8975 17.5104Z" fill="black"/>
<path d="M26.1733 9.56211C26.1733 9.88969 26.0353 10.1483 25.8284 10.3207C25.6043 10.4931 25.3802 10.5793 25.1215 10.5621C24.8802 10.5621 24.6388 10.4759 24.4319 10.2862C24.225 10.1138 24.1215 9.83797 24.1388 9.49314C24.1733 8.64832 24.2077 7.87246 24.225 7.14832C24.225 6.42419 24.225 5.70005 24.1905 4.94143C24.1905 4.59661 24.1388 4.3035 24.0871 4.06213C24.0353 3.82075 23.9491 3.61385 23.8112 3.45868C23.6905 3.30351 23.5181 3.18282 23.294 3.11385C23.0698 3.04489 22.794 3.01041 22.4491 2.99317C21.8802 2.95868 21.3974 2.99317 20.9664 3.02765C20.5526 3.07937 20.1216 3.16558 19.6733 3.28627C19.3457 3.38972 19.0698 3.35523 18.8285 3.20006C18.6043 3.04489 18.4491 2.85523 18.3802 2.61386C18.3112 2.37248 18.3285 2.1311 18.4491 1.87248C18.5698 1.6311 18.794 1.45869 19.1388 1.35524C19.6216 1.21731 20.1388 1.1311 20.6733 1.07938C21.225 1.02766 21.725 1.01041 22.1905 1.02766C22.9836 1.06214 23.6215 1.16559 24.1388 1.338C24.656 1.51041 25.0698 1.78627 25.3802 2.14834C25.4146 1.97593 25.4836 1.838 25.6215 1.70007C25.7595 1.56214 25.9319 1.45869 26.1733 1.38972C26.8801 1.21731 27.5353 1.09662 28.1732 1.0449C28.8112 0.993173 29.3974 0.993173 29.9663 1.0449C30.656 1.09662 31.2422 1.21731 31.725 1.37248C32.2077 1.54489 32.6043 1.76903 32.9318 2.07938C33.2594 2.38972 33.5008 2.76903 33.6732 3.23454C33.8456 3.70006 33.9491 4.25178 33.9836 4.87247C33.9836 5.23454 34.0181 5.61384 34.0181 6.02764C34.0181 6.44143 34.0181 6.87246 34.0181 7.30349C34.0181 7.73453 34.0008 8.16556 33.9836 8.61383C33.9663 9.04487 33.9318 9.45866 33.9146 9.83797C33.8801 10.2 33.7594 10.4587 33.5181 10.6138C33.2767 10.769 33.0353 10.838 32.8112 10.838C32.5698 10.8035 32.3284 10.7 32.1215 10.5104C31.9146 10.3207 31.8112 10.0621 31.8456 9.71728C31.9146 8.95866 31.9663 8.14832 31.9836 7.30349C32.0008 6.44143 31.9836 5.68281 31.9146 4.99316C31.8801 4.63109 31.8284 4.33799 31.7594 4.11385C31.6905 3.88971 31.6043 3.70006 31.4836 3.56213C31.3629 3.4242 31.1905 3.30351 30.9836 3.23454C30.7767 3.16558 30.5008 3.11385 30.1732 3.06213C29.5526 2.97592 28.9836 2.97592 28.4491 3.02765C27.9146 3.07937 27.3457 3.20006 26.7077 3.35523C26.4664 3.40696 26.225 3.38972 26.0008 3.32075C26.0698 3.56213 26.1215 3.80351 26.156 4.06213C26.1905 4.32075 26.2077 4.61385 26.225 4.90695C26.2595 5.70005 26.2595 6.44143 26.2422 7.16556C26.2422 7.8897 26.2077 8.70004 26.1733 9.57935V9.56211ZM27.1732 18.2517C26.9319 18.2517 26.7077 18.1655 26.4664 18.0103C26.225 17.8379 26.1215 17.5793 26.1215 17.2173V13.5276C24.9491 13.5276 23.794 13.4931 22.6733 13.4586C21.5353 13.4242 20.4664 13.3897 19.4664 13.3207C19.1216 13.2862 18.8629 13.1655 18.7078 12.9242C18.5526 12.6828 18.4836 12.4586 18.5181 12.2173C18.5526 11.9759 18.656 11.7345 18.8629 11.5276C19.0698 11.3207 19.3285 11.2345 19.656 11.2518C20.794 11.3207 22.0009 11.3724 23.294 11.4242C24.5871 11.4759 25.8974 11.4931 27.225 11.4931C28.5526 11.4931 29.8629 11.4931 31.1388 11.4414C32.4146 11.3897 33.6387 11.338 34.7767 11.2518C35.1215 11.2173 35.3801 11.3207 35.5698 11.5276C35.7594 11.7345 35.8629 11.9586 35.8974 12.2173C35.9318 12.4586 35.8456 12.6828 35.6732 12.9242C35.5008 13.1655 35.2422 13.2862 34.9146 13.3207C33.8974 13.3897 32.8112 13.4414 31.6905 13.4759C30.5525 13.5104 29.4146 13.5276 28.2422 13.5276V17.2173C28.2422 17.5793 28.1215 17.8379 27.8974 18.0103C27.656 18.1828 27.4319 18.2517 27.1905 18.2517H27.1732Z" fill="black"/>
<path d="M42.0526 17.1828C40.5182 17.1138 39.432 16.7517 38.7768 16.0793C38.1216 15.4242 37.8113 14.4242 37.8113 13.0793V8.97591C37.8113 8.85522 37.8113 8.71729 37.8458 8.5966C37.8802 8.45867 37.932 8.33798 38.0182 8.21729C38.1044 8.0966 38.2078 8.0104 38.3458 7.92419C38.4837 7.85522 38.6561 7.8035 38.863 7.8035H46.1216V5.02765C46.1216 4.37248 45.9837 3.87248 45.6906 3.56214C45.3975 3.25179 44.9147 3.06214 44.2423 2.99317C43.794 2.95869 43.3285 2.92421 42.8457 2.92421C42.363 2.92421 41.9147 2.92421 41.4837 2.97593C41.0526 3.01041 40.6389 3.06214 40.2595 3.11386C39.8802 3.16559 39.5526 3.21731 39.2768 3.25179C38.9664 3.30352 38.6906 3.25179 38.4665 3.06214C38.2423 2.88972 38.1044 2.66559 38.0527 2.42421C38.0009 2.16559 38.0527 1.90697 38.1906 1.66559C38.3458 1.42421 38.5871 1.26904 38.9147 1.20008C39.2251 1.14835 39.5699 1.09663 39.9837 1.0449C40.3975 0.99318 40.8285 0.958697 41.2768 0.924215C41.7251 0.889732 42.1906 0.872491 42.6561 0.872491C43.1216 0.872491 43.5699 0.872491 44.0009 0.889732C45.4492 0.99318 46.5181 1.37249 47.1906 2.0449C47.863 2.71731 48.2078 3.71731 48.2078 5.02765V8.64832C48.2078 8.8897 48.1216 9.14832 47.9664 9.40694C47.8112 9.66556 47.5354 9.78625 47.1561 9.78625H39.8802V13.0276C39.8802 13.3552 39.8975 13.6483 39.9492 13.8897C40.0009 14.1311 40.0871 14.338 40.2251 14.4931C40.363 14.6483 40.5526 14.769 40.8113 14.8724C41.0526 14.9586 41.3802 15.0276 41.7595 15.0449C42.1561 15.0793 42.6044 15.1138 43.1216 15.1138C43.6388 15.1138 44.1388 15.1138 44.6906 15.0793C45.225 15.0449 45.7768 14.9931 46.3285 14.9242C46.8802 14.8552 47.4147 14.7518 47.9147 14.6311C48.2595 14.5449 48.5354 14.5966 48.7595 14.7862C48.9836 14.9759 49.1043 15.1828 49.1561 15.4242C49.2078 15.6655 49.1561 15.9242 49.0354 16.1828C48.8974 16.4414 48.6561 16.5966 48.3285 16.6655C47.2595 16.9069 46.1733 17.0621 45.0699 17.1138C43.9664 17.1655 42.9664 17.1828 42.0526 17.1311V17.1828ZM51.3802 17.5104C51.2595 17.5104 51.1388 17.4931 51.0009 17.4414C50.8802 17.4069 50.7595 17.3379 50.6733 17.2517C50.5698 17.1655 50.5009 17.0448 50.4319 16.9242C50.363 16.8035 50.3457 16.6311 50.363 16.4586C50.4147 15.4586 50.4664 14.3207 50.5009 13.0449C50.5354 11.769 50.5699 10.4414 50.5699 9.0966C50.5699 7.75178 50.5698 6.44144 50.5354 5.18282C50.5009 3.9242 50.4492 2.82076 50.363 1.85525C50.3285 1.49318 50.4319 1.23456 50.6561 1.0449C50.8802 0.872491 51.1043 0.769043 51.363 0.769043C51.6043 0.769043 51.8285 0.85525 52.0698 1.01042C52.3112 1.18283 52.4319 1.42421 52.4492 1.7518C52.5009 2.57938 52.5526 3.51041 52.5698 4.56213C52.6043 5.59661 52.6043 6.68281 52.6043 7.82074H54.5353C54.8802 7.82074 55.1388 7.92419 55.3284 8.14833C55.5009 8.35522 55.6043 8.5966 55.6043 8.85522C55.6043 9.11384 55.5181 9.33798 55.3284 9.56211C55.156 9.76901 54.8802 9.8897 54.5353 9.8897H52.5871C52.5871 11.0966 52.5526 12.2862 52.5181 13.4242C52.4836 14.5621 52.4664 15.5793 52.4319 16.4931C52.4319 16.838 52.3112 17.0966 52.0871 17.2517C51.8629 17.4069 51.6043 17.4931 51.363 17.4931L51.3802 17.5104Z" fill="black"/>
<path d="M63.6386 9.56211C63.6386 9.88969 63.5007 10.1483 63.2938 10.3207C63.0696 10.4931 62.8455 10.5793 62.5869 10.5621C62.3455 10.5621 62.1041 10.4759 61.8972 10.2862C61.6903 10.1138 61.5869 9.83797 61.6041 9.49314C61.6386 8.64832 61.6731 7.87246 61.6903 7.14832C61.6903 6.42419 61.6903 5.70005 61.6558 4.94143C61.6558 4.59661 61.6041 4.3035 61.5524 4.06213C61.5007 3.82075 61.4145 3.61385 61.2765 3.45868C61.1558 3.30351 60.9834 3.18282 60.7593 3.11385C60.5351 3.04489 60.2593 3.01041 59.9145 2.99317C59.3455 2.95868 58.8627 2.99317 58.4317 3.02765C58.0179 3.07937 57.5869 3.16558 57.1386 3.28627C56.811 3.38972 56.5352 3.35523 56.2938 3.20006C56.0697 3.04489 55.9145 2.85523 55.8455 2.61386C55.7765 2.37248 55.7938 2.1311 55.9145 1.87248C56.0352 1.6311 56.2593 1.45869 56.6041 1.35524C57.0869 1.21731 57.6041 1.1311 58.1386 1.07938C58.6903 1.02766 59.1903 1.01041 59.6558 1.02766C60.4489 1.06214 61.0869 1.16559 61.6041 1.338C62.1214 1.51041 62.5351 1.78627 62.8455 2.14834C62.88 1.97593 62.9489 1.838 63.0869 1.70007C63.2248 1.56214 63.3972 1.45869 63.6386 1.38972C64.3455 1.21731 65.0006 1.09662 65.6386 1.0449C66.2765 0.993173 66.8627 0.993173 67.4317 1.0449C68.1213 1.09662 68.7075 1.21731 69.1903 1.37248C69.673 1.54489 70.0696 1.76903 70.3972 2.07938C70.7248 2.38972 70.9661 2.76903 71.1386 3.23454C71.311 3.70006 71.4144 4.25178 71.4489 4.87247C71.4489 5.23454 71.4834 5.61384 71.4834 6.02764C71.4834 6.44143 71.4834 6.87246 71.4834 7.30349C71.4834 7.73453 71.4661 8.16556 71.4489 8.61383C71.4317 9.04487 71.3972 9.45866 71.3799 9.83797C71.3455 10.2 71.2248 10.4587 70.9834 10.6138C70.742 10.769 70.5006 10.838 70.2765 10.838C70.0351 10.8035 69.7937 10.7 69.5868 10.5104C69.3799 10.3207 69.2765 10.0621 69.311 9.71728C69.3799 8.95866 69.4317 8.14832 69.4489 7.30349C69.4661 6.44143 69.4489 5.68281 69.3799 4.99316C69.3455 4.63109 69.2937 4.33799 69.2248 4.11385C69.1558 3.88971 69.0696 3.70006 68.9489 3.56213C68.8282 3.4242 68.6558 3.30351 68.4489 3.23454C68.242 3.16558 67.9662 3.11385 67.6386 3.06213C67.0179 2.97592 66.4489 2.97592 65.9144 3.02765C65.38 3.07937 64.811 3.20006 64.1731 3.35523C63.9317 3.40696 63.6903 3.38972 63.4662 3.32075C63.5351 3.56213 63.5869 3.80351 63.6213 4.06213C63.6558 4.32075 63.6731 4.61385 63.6903 4.90695C63.7248 5.70005 63.7248 6.44143 63.7075 7.16556C63.7075 7.8897 63.6731 8.70004 63.6386 9.57935V9.56211ZM64.6386 18.2517C64.3972 18.2517 64.1731 18.1655 63.9317 18.0103C63.6903 17.8379 63.5869 17.5793 63.5869 17.2173V13.5276C62.4144 13.5276 61.2593 13.4931 60.1386 13.4586C59.0007 13.4242 57.9317 13.3897 56.9317 13.3207C56.5869 13.2862 56.3283 13.1655 56.1731 12.9242C56.0179 12.6828 55.949 12.4586 55.9834 12.2173C56.0179 11.9759 56.1214 11.7345 56.3283 11.5276C56.5352 11.3207 56.7938 11.2345 57.1214 11.2518C58.2593 11.3207 59.4662 11.3724 60.7593 11.4242C62.0524 11.4759 63.3627 11.4931 64.6903 11.4931C66.0179 11.4931 67.3282 11.4931 68.6041 11.4414C69.8799 11.3897 71.1041 11.338 72.242 11.2518C72.5868 11.2173 72.8454 11.3207 73.0351 11.5276C73.2248 11.7345 73.3282 11.9586 73.3627 12.2173C73.3972 12.4586 73.311 12.6828 73.1385 12.9242C72.9661 13.1655 72.7075 13.2862 72.3799 13.3207C71.3627 13.3897 70.2765 13.4414 69.1558 13.4759C68.0179 13.5104 66.88 13.5276 65.7075 13.5276V17.2173C65.7075 17.5793 65.5868 17.8379 65.3627 18.0103C65.1213 18.1828 64.8972 18.2517 64.6558 18.2517H64.6386Z" fill="black"/>
</svg>
