<svg width="24" height="24" viewBox="0 0 24 24" fill="none" xmlns="http://www.w3.org/2000/svg">
<path d="M21.44 11.0499L12.25 20.2399C11.1241 21.3658 9.59717 21.9983 8.00498 21.9983C6.4128 21.9983 4.88583 21.3658 3.75998 20.2399C2.63414 19.1141 2.00165 17.5871 2.00165 15.9949C2.00165 14.4027 2.63414 12.8758 3.75998 11.7499L12.95 2.55992C13.7005 1.80936 14.7185 1.3877 15.78 1.3877C16.8414 1.3877 17.8594 1.80936 18.61 2.55992C19.3605 3.31048 19.7822 4.32846 19.7822 5.38992C19.7822 6.45138 19.3605 7.46936 18.61 8.21992L9.40998 17.4099C9.0347 17.7852 8.52571 17.996 7.99498 17.996C7.46426 17.996 6.95527 17.7852 6.57998 17.4099C6.2047 17.0346 5.99387 16.5256 5.99387 15.9949C5.99387 15.4642 6.2047 14.9552 6.57998 14.5799L15.07 6.09992" stroke="#625D52" stroke-width="2" stroke-linecap="round" stroke-linejoin="round"/>
</svg>
